<?xml version="1.0" standalone="no"?>
<!DOCTYPE svg PUBLIC "-//W3C//DTD SVG 20010904//EN"
 "http://www.w3.org/TR/2001/REC-SVG-20010904/DTD/svg10.dtd">
<svg version="1.0" xmlns="http://www.w3.org/2000/svg"
 width="700.000000pt" height="700.000000pt" viewBox="0 0 700.000000 700.000000"
 preserveAspectRatio="xMidYMid meet">
<metadata>
Created by potrace 1.14, written by Peter Selinger 2001-2017
</metadata>
<g transform="translate(0.000000,700.000000) scale(0.100000,-0.100000)"
fill="#000000" stroke="none">
<path d="M3565 6988 c-11 -6 -28 -20 -37 -31 -10 -11 -19 -20 -20 -21 -2 -1
-5 -511 -8 -1135 l-5 -1134 -900 -3 c-495 -1 -918 -4 -940 -8 -22 -3 -55 -8
-73 -11 -436 -65 -867 -310 -1151 -653 -206 -249 -367 -600 -406 -887 -4 -27
-11 -77 -15 -110 -5 -33 -8 -698 -7 -1477 2 -1414 2 -1417 23 -1444 11 -15 33
-37 48 -48 l27 -21 2642 -2 c1453 -1 2665 2 2692 7 28 4 72 11 99 14 256 35
560 167 791 345 72 56 227 208 281 276 21 28 42 52 45 55 19 17 125 189 160
260 71 145 135 331 155 450 2 14 7 35 9 48 18 76 20 310 20 1997 0 1469 -3
1877 -13 1940 -53 329 -168 606 -360 865 -60 80 -235 261 -317 327 -248 199
-535 328 -871 390 -77 14 -202 17 -969 20 -660 2 -885 0 -900 -9z m1735 -747
c318 -52 587 -224 766 -492 35 -53 64 -99 64 -102 0 -3 13 -34 29 -69 31 -66
66 -177 75 -240 3 -21 9 -55 12 -75 8 -46 11 -928 4 -948 -4 -10 -27 1 -85 40
-180 118 -370 202 -575 253 -217 54 -245 56 -837 57 -277 0 -503 2 -504 5 -5
24 -2 1555 2 1568 6 16 45 17 490 16 327 -1 508 -5 559 -13z m-1799 -3453 c0
-623 2 -1149 4 -1168 9 -93 15 -139 25 -190 6 -30 13 -67 15 -82 7 -36 70
-229 91 -276 34 -77 98 -199 130 -250 19 -29 35 -58 37 -64 1 -8 -424 -11
-1525 -12 -1350 -1 -1527 1 -1530 14 -7 32 -1 2079 6 2157 37 420 350 812 754
942 180 59 170 59 1120 60 l872 1 1 -1132z m1819 1118 c68 -14 155 -37 175
-45 11 -5 51 -21 89 -37 38 -15 109 -53 156 -85 284 -186 462 -473 507 -814
11 -92 7 -1144 -6 -1225 -29 -185 -106 -366 -217 -510 -160 -208 -374 -348
-625 -410 -93 -23 -255 -34 -309 -21 -19 4 -60 14 -90 21 -157 36 -333 136
-462 264 -148 147 -258 374 -284 584 -4 31 -7 560 -8 1175 l-1 1118 520 -4
c286 -2 536 -7 555 -11z"/>
</g>
</svg>
